<svg width="36" height="36" viewBox="0 0 100 100" xmlns="http://www.w3.org/2000/svg" shape-rendering="geometricPrecision">
  <defs>
    <filter id="glow-dark" x="-50%" y="-50%" width="200%" height="200%">
      <feGaussianBlur stdDeviation="3" result="coloredBlur"/>
      <feMerge>
        <feMergeNode in="coloredBlur"/>
        <feMergeNode in="SourceGraphic"/>
      </feMerge>
    </filter>
  </defs>

  <rect width="100" height="100" fill="transparent"/>

  <g stroke="#E8C39E" stroke-width="0.5" opacity="0.25">
    <line x1="50" y1="50" x2="50" y2="20"/>
    <line x1="50" y1="50" x2="50" y2="80"/>
    <line x1="50" y1="50" x2="25" y2="50"/>
    <line x1="50" y1="50" x2="75" y2="50"/>
    <line x1="50" y1="50" x2="30" y2="30" opacity="0.12"/>
    <line x1="50" y1="50" x2="70" y2="30" opacity="0.12"/>
    <line x1="50" y1="50" x2="30" y2="70" opacity="0.12"/>
    <line x1="50" y1="50" x2="70" y2="70" opacity="0.12"/>
  </g>

  <g fill="#E8C39E" opacity="0.5">
    <rect x="49" y="19" width="2" height="2"/>
    <rect x="49" y="79" width="2" height="2"/>
    <rect x="24" y="49" width="2" height="2"/>
    <rect x="74" y="49" width="2" height="2"/>
  </g>

  <rect x="30" y="70" width="10" height="10" fill="#E8C39E" opacity="0.85"/>
  <rect x="30" y="58" width="10" height="10" fill="#E8C39E" opacity="0.95"/>
  <rect x="30" y="46" width="10" height="10" fill="#E8C39E"/>
  <rect x="38" y="36" width="10" height="10" fill="#E8C39E"/>

  <rect x="60" y="70" width="10" height="10" fill="#E8C39E" opacity="0.85"/>
  <rect x="60" y="58" width="10" height="10" fill="#E8C39E" opacity="0.95"/>
  <rect x="60" y="46" width="10" height="10" fill="#E8C39E"/>
  <rect x="52" y="36" width="10" height="10" fill="#E8C39E"/>

  <rect x="38" y="46" width="10" height="10" fill="#E8C39E" opacity="0.75"/>
  <rect x="52" y="46" width="10" height="10" fill="#E8C39E" opacity="0.75"/>

  <rect x="45" y="24" width="10" height="10" fill="#E8C39E"/>
  <rect x="45" y="58" width="10" height="10" fill="#FA9151" opacity="0.95"/>

  <circle cx="50" cy="50" r="3" fill="#E8C39E" filter="url(#glow-dark)"/>
</svg>
